<svg xmlns="http://www.w3.org/2000/svg" width="520" height="300" font-family="system-ui,Arial"><rect width="520" height="300" fill="white"/><line x1="50" y1="50" x2="50" y2="250" stroke="#eee"/><text x="50" y="266" font-size="11" text-anchor="middle">0</text><line x1="120" y1="50" x2="120" y2="250" stroke="#eee"/><text x="120" y="266" font-size="11" text-anchor="middle">1</text><line x1="190" y1="50" x2="190" y2="250" stroke="#eee"/><text x="190" y="266" font-size="11" text-anchor="middle">2</text><line x1="260" y1="50" x2="260" y2="250" stroke="#eee"/><text x="260" y="266" font-size="11" text-anchor="middle">3</text><line x1="330" y1="50" x2="330" y2="250" stroke="#eee"/><text x="330" y="266" font-size="11" text-anchor="middle">4</text><line x1="400" y1="50" x2="400" y2="250" stroke="#eee"/><text x="400" y="266" font-size="11" text-anchor="middle">5</text><line x1="470" y1="50" x2="470" y2="250" stroke="#eee"/><text x="470" y="266" font-size="11" text-anchor="middle">6</text><line x1="50" y1="250" x2="470" y2="250" stroke="#eee"/><text x="44" y="254" font-size="11" text-anchor="end">0.0</text><line x1="50" y1="200" x2="470" y2="200" stroke="#eee"/><text x="44" y="204" font-size="11" text-anchor="end">0.2</text><line x1="50" y1="150" x2="470" y2="150" stroke="#eee"/><text x="44" y="154" font-size="11" text-anchor="end">0.5</text><line x1="50" y1="100" x2="470" y2="100" stroke="#eee"/><text x="44" y="104" font-size="11" text-anchor="end">0.8</text><line x1="50" y1="60" x2="470" y2="60" stroke="#eee"/><text x="44" y="64" font-size="11" text-anchor="end">0.9</text><line x1="50" y1="50" x2="470" y2="50" stroke="#eee"/><text x="44" y="54" font-size="11" text-anchor="end">1.0</text><line x1="50" y1="60" x2="470" y2="60" stroke="#c33" stroke-dasharray="4"/><text x="470" y="56" font-size="10" fill="#c33" text-anchor="end">P=0.95</text><polyline points="50.0,56.1 67.5,58.6 85.0,62.0 102.5,66.5 120.0,71.9 137.5,77.9 155.0,85.3 172.5,94.6 190.0,104.7 207.5,116.8 225.0,129.0 242.5,140.9 260.0,153.6 277.5,166.3 295.0,179.4 312.5,192.2 330.0,202.7 347.5,212.3 365.0,221.1 382.5,227.9 400.0,233.0 417.5,237.1 435.0,240.8 452.5,243.4 470.0,245.2" fill="none" stroke="#1a6" stroke-width="2.5"/><text x="260" y="292" font-size="12" text-anchor="middle">panel MID (pp body-weight, tirz − sema)</text><text x="14" y="150" font-size="12" text-anchor="middle" transform="rotate(-90 14 150)">P(tirz better by &gt; MID)</text></svg>